<?xml version="1.0" encoding="utf-8"?>
<!-- Generator: Adobe Illustrator 15.1.0, SVG Export Plug-In . SVG Version: 6.00 Build 0)  -->
<!DOCTYPE svg PUBLIC "-//W3C//DTD SVG 1.1//EN" "http://www.w3.org/Graphics/SVG/1.1/DTD/svg11.dtd">
<svg version="1.1" id="Шар_1" xmlns="http://www.w3.org/2000/svg" xmlns:xlink="http://www.w3.org/1999/xlink" x="0px" y="0px"
	 width="108.298px" height="32.878px" viewBox="0 0 108.298 32.878" enable-background="new 0 0 108.298 32.878"
	 xml:space="preserve">
<rect x="63.196" fill-rule="evenodd" clip-rule="evenodd" fill="#003752" width="45.103" height="32.802"/>
<path fill-rule="evenodd" clip-rule="evenodd" fill="#F19311" d="M0,0h61.938v32.802H8.2c-4.51,0-8.2-3.69-8.2-8.2V0z"/>
<path fill-rule="evenodd" clip-rule="evenodd" fill="#FFFFFF" d="M73.903,19.199l0.489,1.917l1.015-0.253l0.12-0.039l0.12-0.031
	l0.102-0.046l0.092-0.048l0.093-0.046l0.075-0.055l0.073-0.055l0.056-0.048l0.047-0.047l0.037-0.063l0.046-0.071l0.02-0.071
	l0.02-0.095l0.01-0.096l-0.009-0.11l-0.008-0.119v-0.056l-0.008-0.071l-0.009-0.08l0.001-0.079l-0.009-0.087l-0.018-0.096
	l-0.018-0.096l-0.027-0.104l-0.007-0.104l-0.028-0.11l-0.016-0.119l-0.036-0.119l-0.027-0.11l-0.026-0.129l-0.026-0.127
	l-0.036-0.127l-0.044-0.175l-0.055-0.176l-0.044-0.159l-0.054-0.151l-0.045-0.128l-0.055-0.127l-0.044-0.104l-0.045-0.087
	l-0.056-0.072l-0.055-0.08l-0.056-0.071l-0.054-0.057l-0.063-0.048l-0.055-0.047l-0.057-0.032l-0.045-0.017l-0.073-0.008h-0.084
	l-0.082,0.006l-0.092,0.015l-0.092,0.023L74.65,16.73l-0.101,0.03l-0.11,0.023l-0.12,0.03l-0.111,0.031l-0.101,0.039l-0.093,0.039
	l-0.092,0.031l-0.084,0.031l-0.056,0.039l-0.046,0.032L73.71,17.11l-0.021,0.063l-0.037,0.064l-0.019,0.086l-0.019,0.08l-0.02,0.103
	l-0.01,0.104l0.008,0.103l0.009,0.063l0.008,0.071l0.019,0.072l0.009,0.071l0.007,0.088l0.019,0.079l0.019,0.096l0.018,0.086
	l0.017,0.088l0.027,0.096l0.026,0.104l0.017,0.111l0.028,0.111l0.026,0.111l0.036,0.111L73.903,19.199z M74.5,21.538L74.5,21.538
	l0.249,0.883l0.054,0.215l0.055,0.206l0.052,0.199l0.055,0.19l0.054,0.184l0.044,0.175l0.054,0.166l0.045,0.152l0.045,0.159
	l0.036,0.135l0.035,0.128l0.036,0.119l0.025,0.11l0.027,0.104l0.018,0.097l0.027,0.079l0.054,0.144l0.054,0.135l0.063,0.12
	l0.063,0.104l0.073,0.096l0.063,0.072l0.055,0.063l0.046,0.048l0.047,0.024L76,25.661l0.082,0.009l0.093,0.008l0.102,0.01
	l0.101-0.008l0.102-0.015l0.11-0.022l0.074-0.016l0.056-0.007l0.045,0.008l0.056,0.023l0.027,0.025l0.036,0.04l0.028,0.056
	l0.016,0.055v0.024l-0.009,0.024L76.9,25.907l-0.028,0.031l-0.045,0.016l-0.047,0.031L76.715,26l-0.073,0.023l-5.785,1.49
	l-0.055,0.015h-0.045H70.71h-0.046h-0.027L70.6,27.504l-0.018-0.024l-0.009-0.023l-0.019-0.058v-0.054l0.021-0.048l0.018-0.04
	l0.038-0.039l0.037-0.024l0.046-0.022l0.055-0.016l0.111-0.038l0.092-0.039l0.083-0.047l0.065-0.04l0.064-0.047l0.047-0.054
	l0.046-0.04l0.047-0.047l0.019-0.072l0.011-0.07l0.019-0.096l0.01-0.118l0.002-0.136l0.002-0.143l-0.026-0.151l-0.027-0.158
	l-0.036-0.104l-0.018-0.104l-0.035-0.12l-0.027-0.119l-0.034-0.118l-0.028-0.136l-0.034-0.135l-0.027-0.151l-0.044-0.151
	l-0.026-0.158l-0.035-0.159l-0.054-0.176l-0.036-0.174l-0.044-0.191l-0.044-0.191l-0.063-0.198l-0.48-1.862l-0.054-0.197l-0.053-0.2
	l-0.055-0.183l-0.053-0.184l-0.046-0.167l-0.043-0.166l-0.046-0.16l-0.045-0.143l-0.045-0.143l-0.036-0.136l-0.034-0.127
	l-0.036-0.12l-0.027-0.111l-0.035-0.103l-0.027-0.096l-0.018-0.088l-0.054-0.175l-0.054-0.159l-0.045-0.143L69.396,18.7
	l-0.053-0.111l-0.055-0.08l-0.055-0.063l-0.056-0.049l-0.055-0.04l-0.064-0.032l-0.082-0.023l-0.073-0.018l-0.102-0.001
	l-0.101,0.015L68.59,18.32l-0.119,0.023l-0.065,0.007L68.36,18.35l-0.046-0.008l-0.036-0.008l-0.046-0.017l-0.028-0.016
	l-0.027-0.041l-0.018-0.031v-0.048l0.001-0.056l0.009-0.047l0.021-0.039l0.036-0.048l0.037-0.032l0.046-0.016l0.046-0.015
	l6.863-1.798l0.259-0.061l0.249-0.062l0.239-0.053l0.239-0.046l0.23-0.044l0.231-0.03l0.212-0.045l0.212-0.023l0.202-0.022
	l0.202-0.03l0.194-0.021l0.184-0.007l0.176-0.014l0.184-0.006l0.156-0.007l0.157-0.007l0.147,0.009l0.138,0.025l0.127,0.033
	l0.129,0.048l0.129,0.065l0.119,0.072l0.109,0.088l0.11,0.096l0.101,0.112l0.1,0.128l0.082,0.127l0.09,0.145l0.071,0.167
	l0.064,0.167l0.063,0.175l0.063,0.191l0.018,0.103l0.025,0.119l0.009,0.104l0.018,0.104l0.019,0.103l-0.002,0.111l0.008,0.103v0.097
	l-0.011,0.103l-0.011,0.096l-0.019,0.086l-0.02,0.096l-0.019,0.079l-0.027,0.08l-0.038,0.086L80.1,18.84l-0.094,0.142l-0.102,0.143
	l-0.121,0.142l-0.13,0.134l-0.141,0.126l-0.148,0.109l-0.166,0.102l-0.175,0.095l-0.083,0.047l-0.085,0.055l-0.092,0.047
	l-0.083,0.047l-0.092,0.055l-0.093,0.047l-0.083,0.046l-0.103,0.047l-0.092,0.048l-0.101,0.038l-0.084,0.055l-0.111,0.031
	l-0.093,0.039l-0.092,0.039l-0.102,0.022l-0.102,0.022l-0.11,0.048l-0.111,0.029l-0.11,0.04l-0.111,0.038l-0.101,0.039l-0.112,0.03
	l-0.101,0.039l-0.092,0.031l-0.111,0.031l-0.093,0.03l-0.101,0.031l-0.103,0.03l-0.091,0.022l-0.102,0.032l-0.102,0.022l-0.103,0.03
	l0.121,0.041l0.137,0.058l0.118,0.032l0.13,0.04l0.128,0.033l0.129,0.025l0.138,0.018l0.139,0.017l0.137,0.018h0.13l0.146,0.002
	l0.138-0.016l0.147-0.014l0.13-0.023l0.146-0.022l0.148-0.038l0.082-0.015l0.094-0.031l0.091-0.047l0.112-0.047l0.101-0.047
	l0.111-0.055l0.111-0.046l0.119-0.048l0.129-0.069l0.131-0.055l0.12-0.063l0.111-0.038l0.109-0.048l0.083-0.03l0.093-0.039
	l0.073-0.023l0.056-0.007l0.038,0.009l0.036,0.015l0.054,0.041l0.028,0.04l0.036,0.048l0.027,0.063l0.026,0.071l0.019,0.072
	l0.027,0.063l0.026,0.079l0.036,0.072l0.036,0.088l0.036,0.079l0.055,0.088l0.045,0.08l0.054,0.088l0.056,0.095l0.063,0.089
	l0.064,0.087l0.063,0.097l0.072,0.087l0.073,0.097l0.073,0.095l0.063,0.104l0.072,0.096l0.082,0.096l0.072,0.097l0.083,0.095
	l0.091,0.089l0.082,0.08l0.081,0.079l0.093,0.089l0.073,0.08l0.092,0.072l0.082,0.072l0.072,0.063l0.082,0.064l0.073,0.057
	l0.074,0.056l0.183,0.145l0.174,0.113l0.155,0.089l0.155,0.072l0.138,0.04l0.129,0.026h0.12l0.12-0.015l0.073-0.015l0.064-0.008
	l0.046,0.009l0.046,0.016l0.036,0.024l0.027,0.04l0.018,0.047l0.019,0.057l0.01,0.032l-0.011,0.03l-0.009,0.024l-0.02,0.016
	l-0.035,0.032l-0.047,0.022l-0.064,0.016l-0.073,0.023l-4.567,1.19l-0.063,0.015l-0.056,0.016L78.597,25.5l-0.046,0.009
	l-0.046,0.007h-0.037H78.45h-0.009v-0.008l-0.01-0.017l-0.027-0.017l-0.018-0.039l-0.036-0.04l-0.036-0.057l-0.037-0.063
	l-0.036-0.071l-2.8-3.913L74.5,21.538z M84.923,19.778l0.053,0.215l0.054,0.215l0.055,0.198l0.043,0.197l0.035,0.192l0.036,0.175
	l0.044,0.176l0.026,0.158l0.035,0.158l0.019,0.144l0.035,0.136l0.026,0.128l0.008,0.11l0.026,0.11l0.019,0.097l0.018,0.079
	l0.026,0.15l0.018,0.145l0.016,0.15v0.118l-0.011,0.119l-0.019,0.095l-0.028,0.087l-0.028,0.056l-0.037,0.04l-0.047,0.039
	l-0.055,0.048l-0.074,0.038l-0.084,0.048l-0.093,0.038l-0.101,0.031l-0.111,0.03l-0.064,0.022l-0.064,0.032l-0.056,0.031
	l-0.037,0.039l-0.037,0.048l-0.01,0.046v0.057l0.008,0.063v0.031l0.019,0.009l0.036,0.016l0.027,0.008l0.037,0.001l0.056-0.008
	l0.064-0.015l0.073-0.007l6.023-1.575l0.056-0.016l0.056-0.016l0.046-0.023l0.046-0.022l0.037-0.032l0.027-0.023l0.01-0.03v-0.033
	l-0.017-0.056l-0.037-0.04l-0.046-0.032l-0.054-0.024l-0.065-0.008l-0.073-0.001l-0.074,0.007l-0.082,0.016l-0.121,0.022
	l-0.101,0.016L90.399,22l-0.102-0.001l-0.102-0.01l-0.081-0.008l-0.084-0.018l-0.063-0.016l-0.047-0.057l-0.055-0.047l-0.054-0.072
	l-0.047-0.088l-0.071-0.104l-0.064-0.111l-0.054-0.128l-0.063-0.144l-0.019-0.071l-0.026-0.096l-0.027-0.096l-0.035-0.111
	l-0.036-0.127l-0.036-0.127l-0.045-0.144l-0.035-0.151L89.2,20.116l-0.044-0.174l-0.045-0.168l-0.054-0.19l-0.053-0.191
	l-0.054-0.206l-0.054-0.208l-0.053-0.222l-0.491-1.854L88.3,16.688l-0.054-0.215l-0.045-0.198l-0.054-0.191l-0.044-0.19
	l-0.035-0.183l-0.035-0.167l-0.044-0.167l-0.027-0.159l-0.035-0.143l-0.026-0.143l-0.026-0.12l-0.027-0.12l-0.008-0.111
	l-0.018-0.096l-0.017-0.087l-0.027-0.142l-0.026-0.144l-0.008-0.143l0.01-0.127l0.01-0.111l0.02-0.095l0.02-0.088l0.028-0.055
	l0.037-0.055l0.056-0.056l0.055-0.046l0.075-0.047l0.083-0.047l0.092-0.039l0.103-0.039l0.101-0.022l0.074-0.024l0.065-0.038
	l0.064-0.048l0.046-0.047l0.036-0.047l0.021-0.039l0.02-0.047l-0.01-0.032l-0.018-0.031l-0.02-0.033l-0.045-0.024l-0.056-0.024
	l-0.055-0.008L88.5,12.691h-0.064l-0.046,0.007l-6.022,1.575l-0.075,0.016l-0.046,0.038l-0.055,0.033l-0.029,0.039l-0.018,0.04
	l-0.02,0.039v0.04v0.033l0.019,0.04l0.027,0.024l0.045,0.032l0.046,0.017l0.056,0.016l0.065,0.009l0.072-0.007l0.074-0.015
	l0.101-0.015l0.11-0.023l0.111-0.007l0.102,0.001l0.092,0.001l0.091,0.016l0.075,0.025l0.055,0.031l0.055,0.033l0.055,0.048
	l0.055,0.08l0.054,0.095l0.063,0.112l0.054,0.127l0.063,0.135l0.054,0.144l0.027,0.08l0.019,0.095l0.035,0.103l0.036,0.111
	l0.045,0.128l0.035,0.126l0.045,0.151l0.044,0.152l0.055,0.158l0.045,0.167l0.054,0.176l0.054,0.189l0.053,0.192l0.054,0.198
	l0.063,0.207l0.054,0.216L84.923,19.778z M96.528,16.616L96.528,16.616l-2.009-2.818l0.026,0.024l-0.204,3.435L96.528,16.616z
	 M94.292,17.628L94.292,17.628l0.057,1.064l0.008,0.136l0.026,0.11l0.019,0.111l0.034,0.096l0.027,0.088l0.054,0.079l0.038,0.072
	l0.055,0.064l0.044,0.063l0.056,0.064l0.063,0.057l0.056,0.063l0.073,0.057l0.045,0.063l0.073,0.057l0.054,0.063l0.118,0.129
	l0.128,0.104l0.157,0.096l0.154,0.081l0.176,0.073l0.165,0.04l0.164,0.033l0.166,0.01l0.055,0.009l0.064,0.016l0.056,0.01
	l0.046,0.023l0.036,0.023l0.046,0.033l0.019,0.023l0.018,0.04v0.031l-0.019,0.031l-0.027,0.032l-0.047,0.023l-0.046,0.023
	l-0.056,0.023l-0.064,0.03l-0.065,0.023l-4.408,1.145l-0.065,0.016l-0.063,0.016l-0.065-0.001h-0.056h-0.044l-0.028-0.017
	l-0.027-0.023L91.54,22.01l-0.009-0.04l0.01-0.047l0.02-0.04l0.027-0.04l0.038-0.039l0.036-0.039l0.064-0.031l0.056-0.031
	l0.074-0.048l0.083-0.046l0.083-0.056l0.075-0.063l0.073-0.063l0.074-0.079l0.073-0.079l0.066-0.086l0.074-0.104l0.065-0.102
	l0.066-0.11l0.065-0.119l0.055-0.118l0.066-0.127l0.056-0.134l0.066-0.143l0.075-0.174l0.057-0.19l0.075-0.174l0.057-0.182
	l0.066-0.183l0.057-0.174l0.047-0.182l0.049-0.175l0.046-0.174l0.048-0.174l0.038-0.182l0.039-0.167l0.029-0.175l0.028-0.173
	l0.03-0.174l0.019-0.167l0.02-0.166l0.012-0.182l0.02-0.183l0.029-0.207l0.012-0.214l0.02-0.23l0.021-0.238l0.03-0.261l0.011-0.271
	l0.03-0.27l0.012-0.293l0.028-0.302l0.032-0.317l0.021-0.325l0.03-0.341l0.021-0.35l-0.045-0.063l-0.063-0.057l-0.055-0.056
	l-0.074-0.041l-0.055-0.048l-0.064-0.024l-0.055-0.016l-0.056,0l-0.055-0.024l-0.064-0.017l-0.073-0.017l-0.073-0.009l-0.083-0.016
	l-0.083-0.009l-0.063-0.009h-0.083l-0.082-0.024l-0.084-0.025l-0.064-0.024l-0.063-0.016l-0.046-0.024l-0.027-0.016l-0.027-0.024
	l-0.01-0.024l-0.008-0.039l0.018-0.048l0.039-0.039l0.036-0.04l0.065-0.039l0.073-0.039l0.102-0.04l0.11-0.03l0.102-0.032
	l0.102-0.03l0.093-0.032l0.11-0.031l0.093-0.039l0.109-0.039l0.093-0.047l0.103-0.047l0.102-0.055l0.092-0.046l0.103-0.055
	l0.102-0.054l0.093-0.063l0.092-0.062l0.093-0.055l0.094-0.063l0.102-0.071l0.102-0.07l0.102-0.071l0.103-0.07l0.092-0.071
	l0.083-0.079l0.094-0.07l0.093-0.071l0.083-0.071l0.083-0.071l0.084-0.07l0.074-0.078l0.065-0.072l0.065-0.063l0.064-0.071
	l0.065-0.063l0.129-0.133l0.121-0.126l0.102-0.103l0.094-0.102l0.074-0.07l0.055-0.055l0.028-0.031l0.019-0.008h0.018l0.019,0.008
	l0.027,0.016l0.028,0.016l0.036,0.04l0.037,0.04l0.045,0.056l0.045,0.072l0.056,0.063l0.072,0.088l0.072,0.08l0.074,0.096
	l0.063,0.104l0.073,0.104l0.073,0.104l0.054,0.119l0.091,0.12l0.091,0.127l0.1,0.137l0.101,0.119l0.092,0.127l0.1,0.12l0.072,0.136
	l0.072,0.119l0.101,0.136l0.081,0.127l0.091,0.112l0.083,0.104l0.063,0.112l0.065,0.088l0.054,0.08l0.063,0.08l2.92,3.898
	l0.083,0.111l0.081,0.113l0.073,0.111l0.073,0.112l0.081,0.104l0.073,0.096l0.073,0.104l0.063,0.087l0.074,0.096l0.072,0.088
	l0.063,0.088l0.063,0.072l0.064,0.072l0.064,0.072l0.054,0.063l0.055,0.056l0.11,0.104l0.109,0.097l0.091,0.089l0.092,0.071
	l0.082,0.058l0.064,0.048l0.063,0.032l0.047,0.008l0.046,0.009h0.056l0.073,0.001l0.073,0.001l0.074-0.009l0.082,0.002l0.083-0.008
	l0.084-0.014l0.056,0.015l0.063,0.017l0.046,0.024l0.064,0.024l0.036,0.023l0.028,0.024l0.026,0.017l0.009,0.016v0.032l-0.01,0.023
	l-0.027,0.023l-0.019,0.031l-0.036,0.024l-0.048,0.015l-0.056,0.023l-0.055,0.017l-6.383,1.675l-0.027,0.007l-0.047,0.008
	l-0.037,0.008l-0.027,0.007l-0.037,0.017l-0.026,0.007l-0.029,0.008l-0.018,0.008l-0.027-0.008l-0.037-0.024l-0.036-0.031
	l-0.009-0.033l-0.018-0.063v-0.047l0.011-0.055l0.026-0.041l0.028-0.039l0.047-0.031l0.055-0.031l0.073-0.023l0.194-0.093L97.843,20
	l0.138-0.11l0.112-0.125l0.075-0.143l0.047-0.143l0.002-0.158l-0.034-0.159l-0.021-0.063l-0.019-0.063l-0.034-0.08l-0.027-0.071
	l-0.037-0.097L98.011,18.7l-0.046-0.096l-0.045-0.104l-0.072-0.111l-0.082-0.111l-0.083-0.112l-0.071-0.111l-0.073-0.104
	l-0.082-0.111l-0.082-0.104l-0.063-0.111l-0.074-0.088l-0.082-0.096l-0.082-0.088l-0.063-0.08l-0.073-0.08l-0.064-0.071
	l-0.055-0.064l-0.036-0.064L94.292,17.628z"/>
<polygon fill-rule="evenodd" clip-rule="evenodd" fill="#FFFFFF" points="81.035,10.152 76.608,9.543 81.433,8.32 82.378,4.907 
	85.305,7.466 94.175,5.497 87.252,9.312 89.693,11.46 84.527,10.724 79.871,13.61 "/>
<path fill="#FFFFFF" d="M14.545,20.534c0.266,0,0.52-0.036,0.759-0.105c0.242-0.066,0.469-0.161,0.684-0.274
	c0.211-0.113,0.403-0.242,0.567-0.379s0.301-0.271,0.418-0.399v-5.274c-0.321-0.258-0.681-0.477-1.08-0.649
	c-0.395-0.168-0.817-0.254-1.26-0.254c-0.282,0-0.579,0.055-0.888,0.167c-0.309,0.118-0.591,0.313-0.849,0.587
	c-0.254,0.274-0.469,0.657-0.641,1.146c-0.172,0.489-0.258,1.111-0.258,1.866c0,1.119,0.215,1.987,0.649,2.613
	C13.078,20.209,13.711,20.525,14.545,20.534 M9.189,17.083c0-0.97,0.137-1.839,0.403-2.598c0.266-0.759,0.634-1.397,1.096-1.913
	c0.461-0.517,0.989-0.904,1.584-1.158c0.599-0.254,1.217-0.384,1.858-0.384c0.298,0,0.583,0.027,0.849,0.078
	c0.266,0.055,0.521,0.129,0.755,0.219c0.238,0.09,0.458,0.195,0.665,0.309c0.207,0.114,0.399,0.235,0.575,0.356h0.023
	c-0.007-0.152-0.015-0.368-0.019-0.65c-0.004-0.278-0.004-0.583-0.004-0.911V5.816h2.715V19.11c0,0.734,0.008,1.365,0.024,1.893
	c0.016,0.524,0.032,0.999,0.047,1.408h-2.453l-0.117-1.182h-0.043c-0.16,0.192-0.356,0.38-0.579,0.564
	c-0.227,0.184-0.474,0.34-0.748,0.474c-0.27,0.136-0.567,0.237-0.892,0.316c-0.325,0.074-0.681,0.114-1.061,0.114
	c-0.606,0-1.185-0.106-1.737-0.321c-0.556-0.211-1.052-0.545-1.49-0.99s-0.791-1.033-1.057-1.752
	C9.322,18.91,9.189,18.062,9.189,17.083"/>
<path fill="#FFFFFF" d="M30.635,16.865c0-0.587-0.066-1.108-0.208-1.558c-0.137-0.454-0.328-0.829-0.571-1.135
	c-0.247-0.309-0.54-0.536-0.884-0.688c-0.344-0.153-0.716-0.23-1.123-0.23c-0.396,0-0.767,0.078-1.107,0.23
	c-0.336,0.152-0.63,0.379-0.876,0.688c-0.242,0.306-0.434,0.681-0.571,1.135c-0.137,0.45-0.207,0.97-0.207,1.558
	c0,0.587,0.07,1.106,0.207,1.557c0.137,0.453,0.329,0.829,0.579,1.131c0.247,0.301,0.544,0.531,0.881,0.688
	c0.34,0.156,0.716,0.235,1.119,0.235c0.407,0,0.774-0.079,1.11-0.235c0.337-0.156,0.626-0.387,0.873-0.688
	c0.243-0.302,0.434-0.678,0.571-1.131C30.569,17.971,30.635,17.452,30.635,16.865 M33.444,16.865c0,0.872-0.129,1.666-0.392,2.381
	c-0.258,0.721-0.629,1.335-1.114,1.848c-0.485,0.513-1.072,0.908-1.761,1.185c-0.688,0.282-1.455,0.42-2.304,0.42
	c-0.872,0-1.651-0.138-2.343-0.42c-0.693-0.276-1.279-0.672-1.761-1.185s-0.849-1.127-1.103-1.848
	c-0.259-0.716-0.388-1.509-0.388-2.381c0-0.873,0.133-1.667,0.392-2.383c0.258-0.72,0.634-1.334,1.119-1.847
	c0.485-0.513,1.072-0.908,1.757-1.185c0.688-0.282,1.456-0.419,2.304-0.419c0.873,0,1.655,0.137,2.343,0.419
	c0.693,0.277,1.279,0.672,1.761,1.185c0.481,0.512,0.849,1.127,1.106,1.847C33.315,15.198,33.444,15.992,33.444,16.865"/>
<path fill="#FFFFFF" d="M50.153,15.647c0-0.234-0.008-0.458-0.023-0.661c-0.016-0.207-0.039-0.388-0.078-0.54
	c-0.086-0.336-0.25-0.607-0.493-0.814c-0.246-0.208-0.591-0.313-1.032-0.321c-0.235,0-0.481,0.035-0.732,0.102
	c-0.254,0.071-0.504,0.168-0.75,0.293c-0.25,0.125-0.485,0.278-0.712,0.458c-0.227,0.18-0.431,0.379-0.615,0.603v7.644h-2.715
	v-6.764c0-0.234-0.008-0.458-0.024-0.661c-0.015-0.207-0.043-0.388-0.078-0.54c-0.086-0.336-0.246-0.607-0.489-0.814
	c-0.239-0.208-0.587-0.313-1.037-0.321c-0.238,0-0.481,0.035-0.735,0.102c-0.25,0.071-0.501,0.168-0.748,0.293
	c-0.25,0.125-0.485,0.278-0.712,0.458c-0.227,0.18-0.43,0.379-0.614,0.603v7.644H35.85V11.305h2.246l0.255,1.549h0.043
	c0.16-0.231,0.364-0.458,0.61-0.677c0.243-0.223,0.521-0.419,0.83-0.587c0.309-0.168,0.649-0.301,1.021-0.407
	c0.369-0.101,0.764-0.152,1.174-0.152c0.732,0,1.393,0.16,1.976,0.485c0.586,0.325,1.033,0.833,1.338,1.522h0.043
	c0.215-0.301,0.454-0.571,0.716-0.817c0.266-0.243,0.559-0.454,0.88-0.63c0.32-0.176,0.665-0.313,1.036-0.411
	c0.368-0.097,0.767-0.148,1.185-0.148c0.795,0.008,1.46,0.172,2,0.497c0.54,0.325,0.955,0.771,1.245,1.338
	c0.078,0.145,0.14,0.301,0.195,0.473c0.055,0.173,0.098,0.364,0.133,0.579c0.031,0.215,0.059,0.45,0.074,0.712
	c0.016,0.257,0.02,0.555,0.02,0.892v6.889h-2.715V15.647z"/>
</svg>
