<?xml version="1.0" encoding="utf-8"?>
<!-- Generator: Adobe Illustrator 15.1.0, SVG Export Plug-In . SVG Version: 6.00 Build 0)  -->
<!DOCTYPE svg PUBLIC "-//W3C//DTD SVG 1.1//EN" "http://www.w3.org/Graphics/SVG/1.1/DTD/svg11.dtd">
<svg version="1.1" id="Шар_1" xmlns="http://www.w3.org/2000/svg" xmlns:xlink="http://www.w3.org/1999/xlink" x="0px" y="0px"
	 width="134.706px" height="32.878px" viewBox="0 0 134.706 32.878" enable-background="new 0 0 134.706 32.878"
	 xml:space="preserve">
<rect x="89.184" fill-rule="evenodd" clip-rule="evenodd" fill="#003752" width="45.521" height="33.106"/>
<path fill-rule="evenodd" clip-rule="evenodd" fill="#00A3A2" d="M0,0h87.916v33.106H8.277C3.725,33.106,0,29.382,0,24.83V0z"/>
<path fill-rule="evenodd" clip-rule="evenodd" fill="#FFFFFF" d="M99.992,19.378l0.492,1.935l1.025-0.256l0.122-0.039l0.12-0.031
	l0.103-0.047l0.093-0.048l0.094-0.046l0.075-0.057l0.074-0.055l0.056-0.048l0.048-0.047l0.038-0.064l0.046-0.071l0.021-0.072
	l0.019-0.096l0.01-0.097l-0.009-0.111l-0.007-0.121v-0.056l-0.009-0.072l-0.009-0.08V19.72l-0.009-0.089l-0.017-0.096l-0.018-0.097
	l-0.027-0.104l-0.007-0.104l-0.029-0.113l-0.016-0.119l-0.037-0.121l-0.028-0.11l-0.025-0.13l-0.027-0.128l-0.036-0.129
	l-0.045-0.176l-0.054-0.178l-0.045-0.16l-0.055-0.153l-0.045-0.129l-0.055-0.128l-0.045-0.105l-0.046-0.087l-0.055-0.073
	l-0.057-0.081l-0.055-0.072l-0.055-0.057l-0.063-0.049l-0.057-0.047l-0.057-0.032l-0.046-0.018l-0.074-0.008l-0.083,0l-0.084,0.006
	l-0.093,0.015l-0.093,0.024l-0.113,0.015l-0.101,0.031l-0.111,0.023l-0.122,0.031l-0.112,0.031l-0.102,0.039l-0.094,0.04
	l-0.093,0.032l-0.084,0.031l-0.057,0.04l-0.046,0.032l-0.027,0.056l-0.021,0.063l-0.037,0.064l-0.019,0.087l-0.02,0.081
	l-0.019,0.103l-0.011,0.105l0.008,0.104l0.009,0.064l0.009,0.072l0.019,0.072l0.009,0.072l0.008,0.088l0.018,0.081l0.019,0.096
	l0.019,0.088l0.016,0.089l0.028,0.096l0.026,0.104l0.018,0.112l0.028,0.112l0.026,0.113l0.036,0.111L99.992,19.378z M100.593,21.738
	L100.593,21.738l0.251,0.891l0.056,0.216l0.055,0.21l0.052,0.2l0.055,0.193l0.054,0.185l0.045,0.177l0.056,0.168l0.044,0.153
	l0.046,0.159l0.035,0.138l0.037,0.128l0.035,0.121l0.026,0.111l0.027,0.104l0.018,0.099l0.027,0.078l0.055,0.146l0.055,0.137
	l0.064,0.121l0.063,0.104l0.075,0.098l0.063,0.072l0.056,0.063l0.046,0.049l0.048,0.023l0.072,0.019l0.083,0.009l0.094,0.008
	l0.103,0.009l0.102-0.007l0.103-0.015l0.111-0.023l0.075-0.016l0.056-0.007l0.045,0.008l0.057,0.023l0.027,0.025l0.036,0.04
	l0.028,0.057l0.018,0.056v0.024l-0.009,0.024l-0.02,0.031l-0.028,0.033l-0.046,0.014l-0.048,0.032l-0.064,0.016l-0.074,0.024
	l-5.838,1.503l-0.056,0.016h-0.046l-0.047-0.002h-0.046h-0.028l-0.037-0.023l-0.018-0.025l-0.009-0.023l-0.02-0.057v-0.056
	l0.021-0.048l0.018-0.041l0.038-0.039l0.037-0.023l0.048-0.024l0.055-0.015l0.112-0.039l0.093-0.039l0.083-0.047l0.066-0.041
	l0.064-0.048l0.047-0.054l0.047-0.04l0.047-0.048l0.021-0.072l0.01-0.07l0.019-0.098l0.011-0.12l0.002-0.136l0.001-0.145
	l-0.026-0.152l-0.026-0.16l-0.037-0.104l-0.019-0.104l-0.035-0.12l-0.028-0.121l-0.034-0.121l-0.027-0.136l-0.035-0.136
	l-0.027-0.153l-0.045-0.152l-0.026-0.16l-0.035-0.159l-0.054-0.178l-0.037-0.176l-0.044-0.192l-0.045-0.193l-0.063-0.201
	l-0.485-1.879l-0.054-0.2l-0.054-0.2l-0.056-0.186l-0.053-0.184l-0.047-0.17l-0.044-0.169l-0.045-0.16l-0.046-0.143l-0.045-0.146
	l-0.037-0.137l-0.034-0.128L95.77,19.87l-0.028-0.113l-0.036-0.104l-0.026-0.096l-0.019-0.09l-0.054-0.176l-0.054-0.16l-0.045-0.144
	l-0.065-0.114l-0.054-0.111l-0.056-0.082l-0.055-0.064l-0.056-0.049l-0.055-0.04l-0.066-0.032l-0.082-0.024l-0.074-0.017
	l-0.104-0.001l-0.102,0.015l-0.111,0.024l-0.121,0.021l-0.065,0.007h-0.046l-0.047-0.008l-0.037-0.008l-0.045-0.017l-0.029-0.017
	l-0.026-0.041l-0.019-0.03v-0.05l0.001-0.056l0.009-0.048l0.021-0.04l0.037-0.048l0.037-0.031l0.046-0.017l0.048-0.016l6.926-1.815
	l0.261-0.062l0.251-0.061l0.241-0.054l0.243-0.047l0.232-0.045l0.233-0.03l0.213-0.045l0.214-0.023l0.205-0.022l0.204-0.031
	l0.195-0.021l0.187-0.007l0.177-0.014l0.186-0.006l0.157-0.007l0.159-0.007l0.148,0.009l0.139,0.025l0.129,0.033l0.13,0.049
	l0.131,0.066l0.119,0.073l0.111,0.089l0.11,0.097l0.102,0.113l0.1,0.129l0.083,0.127l0.091,0.146l0.073,0.169l0.064,0.168
	l0.063,0.177l0.063,0.193l0.017,0.104l0.027,0.121l0.008,0.104l0.019,0.104L106.422,18l-0.002,0.112l0.008,0.104l-0.001,0.096
	l-0.01,0.104l-0.011,0.096l-0.019,0.088l-0.02,0.096l-0.02,0.081l-0.027,0.08l-0.039,0.087l-0.037,0.071l-0.094,0.144l-0.104,0.143
	l-0.122,0.145l-0.131,0.136l-0.142,0.126l-0.149,0.11l-0.168,0.103l-0.177,0.096l-0.084,0.047l-0.085,0.055l-0.093,0.047
	l-0.084,0.048l-0.093,0.056l-0.093,0.047l-0.084,0.048l-0.104,0.047l-0.093,0.048l-0.102,0.039l-0.085,0.055l-0.111,0.032
	l-0.094,0.038l-0.093,0.039l-0.103,0.023l-0.103,0.022l-0.111,0.048l-0.112,0.03l-0.111,0.04l-0.113,0.039l-0.102,0.039
	l-0.112,0.031l-0.103,0.039l-0.093,0.031l-0.111,0.032l-0.094,0.03l-0.102,0.031l-0.104,0.032l-0.093,0.021l-0.103,0.032
	l-0.102,0.022l-0.103,0.031l0.121,0.041l0.138,0.058l0.12,0.032l0.131,0.041l0.129,0.035l0.131,0.023l0.139,0.017l0.14,0.018
	l0.139,0.018h0.131l0.147,0.002l0.14-0.015l0.148-0.014l0.131-0.024l0.148-0.021l0.149-0.039l0.083-0.016l0.093-0.03l0.094-0.047
	l0.112-0.048l0.102-0.048l0.112-0.055l0.112-0.048l0.121-0.047l0.131-0.07l0.131-0.055l0.121-0.063l0.112-0.04l0.111-0.046
	l0.084-0.03l0.093-0.04l0.074-0.023l0.057-0.008l0.037,0.01l0.037,0.015l0.055,0.04l0.028,0.041l0.036,0.049l0.027,0.063
	l0.026,0.072l0.02,0.073l0.026,0.063l0.027,0.08l0.036,0.073l0.038,0.088l0.034,0.082l0.057,0.087l0.046,0.081L106.5,21.7
	l0.057,0.096l0.062,0.09l0.065,0.089l0.064,0.097l0.073,0.088l0.073,0.098l0.074,0.097l0.063,0.105l0.073,0.096l0.083,0.098
	l0.074,0.096l0.082,0.097l0.093,0.089l0.082,0.081l0.082,0.081l0.094,0.089l0.074,0.081l0.092,0.072l0.084,0.073l0.072,0.064
	l0.083,0.065l0.073,0.057l0.075,0.057l0.184,0.146l0.176,0.113l0.158,0.09l0.156,0.073l0.14,0.04l0.129,0.026l0.121,0.001
	l0.121-0.015l0.074-0.016l0.064-0.008l0.046,0.009l0.048,0.017l0.036,0.023l0.028,0.041l0.018,0.048l0.02,0.056l0.008,0.033
	l-0.01,0.032l-0.01,0.023l-0.02,0.016l-0.036,0.032l-0.047,0.022l-0.064,0.017l-0.075,0.023l-4.608,1.201l-0.064,0.015l-0.056,0.017
	l-0.057,0.007l-0.046,0.009l-0.047,0.007l-0.037-0.001h-0.019h-0.01v-0.007l-0.009-0.017l-0.027-0.017l-0.019-0.039l-0.037-0.041
	l-0.036-0.057l-0.037-0.064l-0.036-0.073l-2.826-3.947L100.593,21.738z M111.114,19.962l0.054,0.218l0.055,0.217l0.054,0.2
	l0.044,0.199l0.036,0.194l0.036,0.176l0.044,0.177l0.027,0.16l0.035,0.159l0.018,0.146l0.036,0.138l0.026,0.127l0.008,0.112
	l0.026,0.111l0.02,0.098l0.018,0.08l0.027,0.153l0.017,0.144l0.017,0.152v0.119l-0.011,0.12l-0.02,0.096l-0.028,0.087l-0.029,0.059
	l-0.036,0.038l-0.047,0.04l-0.057,0.048l-0.074,0.039l-0.084,0.048l-0.094,0.039l-0.102,0.031l-0.113,0.031l-0.064,0.022
	l-0.066,0.033l-0.056,0.029l-0.037,0.041l-0.038,0.048l-0.009,0.047l-0.001,0.057l0.009,0.064v0.032l0.019,0.008l0.035,0.016
	l0.029,0.008l0.037,0.003l0.056-0.01l0.066-0.014l0.073-0.008l6.08-1.59l0.055-0.015l0.057-0.017l0.046-0.023l0.047-0.023
	l0.037-0.032l0.028-0.023l0.01-0.031v-0.032l-0.017-0.057l-0.038-0.041l-0.046-0.031l-0.055-0.024l-0.065-0.009l-0.073-0.001
	l-0.075,0.007l-0.084,0.016l-0.122,0.022l-0.102,0.016h-0.111l-0.103-0.002l-0.103-0.009l-0.082-0.009l-0.084-0.018l-0.065-0.017
	l-0.046-0.056l-0.056-0.048l-0.055-0.073l-0.046-0.089l-0.073-0.104l-0.064-0.111l-0.055-0.129l-0.063-0.146l-0.018-0.071
	l-0.027-0.097l-0.026-0.096l-0.035-0.113l-0.038-0.128l-0.036-0.127l-0.045-0.146l-0.036-0.152l-0.054-0.16l-0.045-0.176
	l-0.045-0.169l-0.055-0.192l-0.054-0.193l-0.053-0.209l-0.055-0.209l-0.054-0.225l-0.496-1.87l-0.053-0.217l-0.055-0.217
	l-0.044-0.201l-0.055-0.193l-0.044-0.192l-0.036-0.185l-0.035-0.169l-0.045-0.168l-0.026-0.161l-0.037-0.144l-0.026-0.145
	l-0.025-0.12l-0.028-0.122l-0.008-0.112l-0.018-0.096l-0.019-0.088l-0.025-0.144l-0.027-0.145L113.96,14.1l0.01-0.129l0.011-0.111
	l0.02-0.097l0.02-0.088l0.028-0.055l0.038-0.055l0.056-0.057l0.055-0.047l0.076-0.048l0.084-0.047l0.094-0.04l0.103-0.039
	l0.101-0.022l0.075-0.025l0.065-0.038l0.065-0.048l0.048-0.047l0.035-0.048l0.021-0.04l0.019-0.048l-0.01-0.032l-0.018-0.032
	l-0.02-0.033l-0.046-0.024l-0.055-0.024l-0.056-0.008l-0.056-0.009h-0.065l-0.047,0.008l-6.079,1.589l-0.074,0.016l-0.047,0.039
	l-0.055,0.032l-0.03,0.04l-0.018,0.04l-0.02,0.04v0.04v0.033l0.019,0.04l0.027,0.024l0.046,0.033l0.045,0.016l0.057,0.016
	l0.066,0.009l0.072-0.007l0.075-0.016l0.102-0.015l0.111-0.022l0.112-0.007l0.103,0.001l0.093,0.001l0.093,0.016l0.074,0.025
	l0.056,0.032l0.056,0.033l0.055,0.049l0.056,0.081l0.054,0.096l0.064,0.114l0.054,0.127l0.064,0.137l0.054,0.146l0.028,0.08
	l0.018,0.096l0.036,0.104l0.037,0.112l0.045,0.13l0.036,0.127l0.045,0.152l0.045,0.153l0.055,0.16l0.046,0.168l0.053,0.178
	l0.056,0.191l0.053,0.194l0.054,0.2l0.063,0.208l0.055,0.218L111.114,19.962z M122.826,16.771L122.826,16.771l-2.027-2.844
	l0.027,0.024l-0.207,3.466L122.826,16.771z M120.569,17.792L120.569,17.792l0.057,1.075l0.009,0.136l0.026,0.111l0.019,0.113
	l0.034,0.096l0.028,0.09l0.054,0.079l0.039,0.073l0.055,0.065l0.045,0.063l0.056,0.066l0.064,0.057l0.056,0.063l0.074,0.056
	l0.045,0.065l0.074,0.057l0.055,0.064l0.119,0.129l0.129,0.107l0.158,0.096l0.157,0.082l0.176,0.073l0.167,0.041l0.166,0.034
	l0.167,0.01l0.056,0.008l0.065,0.017l0.056,0.009l0.047,0.023l0.035,0.024l0.047,0.033l0.02,0.024l0.017,0.04v0.032l-0.019,0.03
	l-0.028,0.033l-0.047,0.023l-0.046,0.023l-0.057,0.024l-0.064,0.03l-0.066,0.023l-4.449,1.155l-0.065,0.016l-0.063,0.016
	l-0.066-0.001h-0.056h-0.046l-0.028-0.017l-0.027-0.023l-0.019-0.025l-0.009-0.04l0.01-0.047l0.019-0.04l0.028-0.041l0.038-0.039
	l0.037-0.04l0.065-0.032l0.056-0.031l0.074-0.047l0.085-0.047l0.084-0.057l0.074-0.063l0.075-0.063l0.075-0.081l0.073-0.079
	l0.068-0.087l0.073-0.104l0.067-0.104l0.066-0.112l0.066-0.119l0.056-0.12l0.067-0.128l0.056-0.135l0.065-0.144l0.076-0.176
	l0.057-0.191l0.077-0.177l0.057-0.183l0.067-0.184l0.058-0.176l0.048-0.184l0.048-0.177l0.047-0.176l0.048-0.176l0.039-0.184
	l0.039-0.168l0.03-0.176l0.028-0.176l0.03-0.176l0.02-0.168l0.02-0.167l0.012-0.185l0.02-0.184l0.029-0.208l0.012-0.216l0.021-0.232
	l0.021-0.24l0.031-0.264l0.011-0.272l0.03-0.272l0.012-0.296l0.03-0.305l0.03-0.32l0.022-0.328l0.03-0.344l0.021-0.353l-0.045-0.063
	l-0.064-0.057l-0.056-0.057l-0.073-0.041l-0.057-0.048l-0.064-0.025l-0.055-0.016l-0.057,0l-0.056-0.025l-0.064-0.017l-0.074-0.017
	l-0.073-0.008l-0.084-0.018l-0.084-0.008l-0.064-0.009h-0.083l-0.083-0.025l-0.085-0.026l-0.064-0.024l-0.064-0.017l-0.046-0.023
	l-0.027-0.017l-0.028-0.024l-0.01-0.024l-0.009-0.04l0.019-0.048l0.039-0.039l0.037-0.04l0.065-0.04l0.074-0.039l0.103-0.039
	l0.111-0.031l0.103-0.032l0.103-0.03l0.094-0.032l0.111-0.031l0.093-0.039l0.111-0.04l0.094-0.047l0.103-0.047l0.103-0.055
	l0.093-0.047l0.104-0.055l0.103-0.055l0.094-0.063l0.093-0.063l0.094-0.056l0.095-0.063l0.102-0.072l0.104-0.071l0.102-0.072
	l0.104-0.071l0.094-0.071l0.083-0.08l0.095-0.071l0.094-0.071l0.083-0.071l0.084-0.072l0.085-0.071l0.074-0.079l0.067-0.072
	l0.065-0.063l0.065-0.071l0.065-0.064l0.131-0.135l0.122-0.127l0.103-0.104l0.095-0.103l0.074-0.071l0.056-0.056l0.029-0.031
	l0.019-0.009h0.017l0.02,0.009l0.027,0.016l0.028,0.016l0.037,0.041l0.038,0.041l0.045,0.056l0.045,0.072l0.057,0.065l0.073,0.088
	l0.073,0.081l0.073,0.097l0.063,0.105l0.074,0.104l0.073,0.105l0.055,0.12l0.093,0.121l0.091,0.129l0.101,0.138l0.101,0.12
	l0.094,0.129l0.101,0.121l0.073,0.138l0.073,0.12l0.101,0.138l0.082,0.128l0.092,0.113l0.083,0.105l0.063,0.112l0.065,0.088
	l0.055,0.08l0.064,0.081l2.947,3.935L128,16.871l0.082,0.114l0.073,0.112l0.074,0.113l0.082,0.105l0.074,0.097l0.073,0.104
	l0.064,0.088l0.074,0.097l0.072,0.088l0.065,0.089l0.063,0.072l0.065,0.073l0.063,0.073l0.055,0.063l0.056,0.058l0.111,0.104
	l0.11,0.098l0.091,0.09l0.093,0.072l0.083,0.058l0.066,0.049l0.063,0.032l0.047,0.009l0.047,0.007l0.056,0.001l0.074,0.001h0.073
	l0.076-0.008l0.083,0.002l0.083-0.008l0.085-0.016l0.056,0.017l0.063,0.017l0.047,0.024l0.065,0.024l0.036,0.024l0.028,0.024
	l0.027,0.018l0.009,0.016v0.031l-0.01,0.024l-0.028,0.024l-0.018,0.03l-0.037,0.024l-0.048,0.016l-0.056,0.023l-0.057,0.017
	l-6.441,1.689l-0.028,0.009l-0.047,0.007l-0.037,0.008l-0.028,0.007l-0.037,0.017l-0.027,0.008l-0.027,0.009l-0.02,0.007
	l-0.027-0.007l-0.036-0.026l-0.038-0.033l-0.009-0.031l-0.019-0.065l0.001-0.047l0.012-0.055l0.025-0.042l0.029-0.039l0.047-0.03
	l0.056-0.032l0.074-0.024l0.195-0.093l0.179-0.111l0.139-0.111l0.114-0.126l0.074-0.146l0.049-0.143l0.001-0.16l-0.033-0.161
	l-0.021-0.063l-0.019-0.065l-0.035-0.08l-0.027-0.072l-0.037-0.097l-0.034-0.088l-0.047-0.096l-0.046-0.104l-0.073-0.113
	l-0.082-0.112l-0.083-0.112l-0.073-0.114l-0.073-0.105l-0.083-0.111l-0.082-0.105l-0.064-0.112l-0.074-0.088l-0.082-0.097
	l-0.083-0.089l-0.064-0.08l-0.073-0.081l-0.065-0.072l-0.055-0.065l-0.037-0.065L120.569,17.792z"/>
<polygon fill-rule="evenodd" clip-rule="evenodd" fill="#FFFFFF" points="107.189,10.247 102.721,9.632 107.591,8.398 
	108.545,4.952 111.5,7.536 120.453,5.548 113.464,9.398 115.928,11.567 110.713,10.824 106.014,13.736 "/>
<path fill="#FFFFFF" d="M23.715,15.808c0-0.238-0.008-0.462-0.023-0.67c-0.016-0.208-0.043-0.388-0.082-0.542
	c-0.085-0.339-0.25-0.612-0.497-0.82c-0.246-0.208-0.592-0.315-1.039-0.323c-0.239,0-0.485,0.034-0.74,0.104
	c-0.254,0.069-0.506,0.167-0.756,0.294c-0.25,0.127-0.49,0.282-0.716,0.462c-0.227,0.181-0.433,0.383-0.618,0.606v7.702h-2.737
	v-6.813c0-0.238-0.008-0.462-0.023-0.67c-0.016-0.208-0.042-0.388-0.082-0.542c-0.084-0.339-0.248-0.612-0.49-0.82
	c-0.243-0.208-0.591-0.315-1.045-0.323c-0.239,0-0.485,0.034-0.739,0.104c-0.254,0.069-0.506,0.167-0.756,0.294
	c-0.25,0.127-0.489,0.282-0.716,0.462c-0.227,0.181-0.433,0.383-0.617,0.606v7.702H9.303V11.431h2.263l0.254,1.559h0.046
	c0.162-0.231,0.366-0.458,0.612-0.682c0.246-0.223,0.525-0.419,0.837-0.589c0.312-0.169,0.654-0.306,1.028-0.41
	c0.373-0.104,0.768-0.155,1.184-0.155c0.739,0,1.403,0.164,1.992,0.49c0.589,0.328,1.038,0.837,1.346,1.53h0.046
	c0.216-0.3,0.456-0.574,0.722-0.82c0.266-0.246,0.56-0.458,0.883-0.635s0.672-0.316,1.045-0.416c0.373-0.1,0.771-0.15,1.196-0.15
	c0.8,0.007,1.472,0.175,2.015,0.501c0.542,0.328,0.96,0.776,1.252,1.346c0.078,0.146,0.143,0.305,0.197,0.479
	c0.053,0.173,0.098,0.368,0.133,0.583c0.035,0.216,0.06,0.455,0.075,0.716c0.016,0.262,0.023,0.563,0.023,0.901v6.939h-2.737V15.808
	z"/>
<path fill="#FFFFFF" d="M35.733,21.432h-0.046c-0.154,0.161-0.339,0.327-0.554,0.496c-0.216,0.17-0.462,0.329-0.739,0.479
	s-0.585,0.271-0.924,0.364c-0.338,0.092-0.704,0.139-1.098,0.139c-0.53,0-1.027-0.083-1.489-0.249
	c-0.461-0.165-0.858-0.404-1.189-0.716s-0.591-0.689-0.779-1.132s-0.283-0.937-0.283-1.483c0-0.601,0.11-1.14,0.329-1.617
	c0.22-0.478,0.526-0.882,0.918-1.212c0.393-0.331,0.862-0.584,1.409-0.757c0.546-0.173,1.15-0.26,1.813-0.26
	c0.485,0,0.932,0.031,1.339,0.093c0.408,0.062,0.766,0.135,1.074,0.219v-0.451c0-0.262-0.044-0.514-0.132-0.756
	c-0.089-0.243-0.231-0.458-0.428-0.647c-0.196-0.188-0.452-0.338-0.768-0.45c-0.315-0.112-0.7-0.167-1.155-0.167
	c-0.554,0-1.108,0.061-1.663,0.184c-0.554,0.124-1.154,0.309-1.801,0.555v-2.136c0.563-0.246,1.159-0.436,1.79-0.566
	c0.631-0.131,1.293-0.2,1.986-0.208c0.816,0,1.53,0.1,2.142,0.3c0.612,0.2,1.124,0.476,1.536,0.826
	c0.412,0.35,0.72,0.764,0.924,1.242s0.306,0.997,0.306,1.559v4.215c0,0.739,0.008,1.375,0.023,1.905
	c0.015,0.532,0.03,1.005,0.046,1.42h-2.471L35.733,21.432z M35.514,17.852c-0.262-0.062-0.562-0.117-0.9-0.167
	c-0.339-0.05-0.682-0.076-1.028-0.076c-0.67,0-1.2,0.133-1.588,0.399c-0.389,0.266-0.583,0.672-0.583,1.219
	c0,0.253,0.044,0.475,0.133,0.663c0.089,0.189,0.208,0.345,0.358,0.469c0.151,0.122,0.325,0.214,0.525,0.276
	c0.2,0.062,0.412,0.093,0.635,0.093c0.277,0,0.539-0.037,0.785-0.11s0.474-0.165,0.681-0.277c0.208-0.111,0.395-0.236,0.561-0.375
	s0.307-0.273,0.421-0.404V17.852z"/>
<path fill="#FFFFFF" d="M47.729,13.602h-0.231c-0.839,0-1.577,0.125-2.212,0.375s-1.125,0.633-1.472,1.148v7.494h-2.737V11.431
	h2.264l0.254,1.559h0.046c0.323-0.57,0.768-1.018,1.334-1.346c0.565-0.327,1.245-0.49,2.038-0.49c0.278,0,0.516,0.015,0.716,0.046
	V13.602z"/>
<polygon fill="#FFFFFF" points="49.356,5.899 52.093,5.899 52.093,15.969 52.151,15.969 56.413,11.431 59.795,11.431 54.888,16.686 
	59.831,22.62 56.516,22.62 52.14,17.413 52.093,17.413 52.093,22.62 49.356,22.62 "/>
<path fill="#FFFFFF" d="M66.432,20.704c0.532,0,1.085-0.054,1.663-0.161c0.578-0.108,1.163-0.262,1.755-0.462v2.183
	c-0.354,0.153-0.897,0.3-1.628,0.438c-0.731,0.139-1.489,0.209-2.274,0.209c-0.793,0-1.545-0.103-2.257-0.307
	c-0.713-0.203-1.334-0.533-1.865-0.987c-0.532-0.454-0.953-1.044-1.265-1.768c-0.312-0.722-0.468-1.6-0.468-2.632
	c0-1.016,0.146-1.905,0.439-2.667c0.292-0.762,0.685-1.393,1.178-1.894c0.492-0.5,1.056-0.875,1.691-1.126s1.292-0.375,1.969-0.375
	c0.708,0,1.361,0.107,1.958,0.323c0.596,0.215,1.112,0.554,1.547,1.016c0.435,0.463,0.774,1.057,1.016,1.785
	c0.243,0.728,0.364,1.587,0.364,2.58c-0.008,0.385-0.02,0.713-0.035,0.982h-7.333c0.039,0.516,0.154,0.957,0.347,1.322
	c0.192,0.366,0.444,0.663,0.756,0.89c0.312,0.228,0.676,0.393,1.091,0.496S65.947,20.704,66.432,20.704 M65.334,13.29
	c-0.346,0-0.654,0.064-0.924,0.19c-0.269,0.127-0.502,0.3-0.698,0.52c-0.197,0.219-0.353,0.476-0.468,0.768
	c-0.115,0.293-0.192,0.604-0.231,0.935h4.4c0-0.331-0.045-0.642-0.133-0.935c-0.088-0.292-0.219-0.549-0.393-0.768
	c-0.173-0.22-0.388-0.393-0.646-0.52C65.983,13.354,65.681,13.29,65.334,13.29"/>
<path fill="#FFFFFF" d="M79.619,22.609c-0.308,0.092-0.675,0.166-1.103,0.22c-0.427,0.054-0.825,0.081-1.195,0.081
	c-0.939,0-1.707-0.153-2.304-0.456c-0.597-0.305-1.018-0.742-1.265-1.312c-0.177-0.408-0.265-0.962-0.265-1.663v-5.797h-2.09v-2.251
	h2.09v-3.13h2.737v3.13h3.233v2.251h-3.233v5.438c0,0.432,0.065,0.751,0.196,0.96c0.23,0.354,0.689,0.53,1.374,0.53
	c0.315,0,0.629-0.024,0.941-0.074c0.312-0.051,0.606-0.114,0.884-0.191V22.609z"/>
</svg>
