<?xml version="1.0" encoding="utf-8"?>
<!-- Generator: Adobe Illustrator 15.1.0, SVG Export Plug-In . SVG Version: 6.00 Build 0)  -->
<!DOCTYPE svg PUBLIC "-//W3C//DTD SVG 1.1//EN" "http://www.w3.org/Graphics/SVG/1.1/DTD/svg11.dtd">
<svg version="1.1" id="Шар_1" xmlns="http://www.w3.org/2000/svg" xmlns:xlink="http://www.w3.org/1999/xlink" x="0px" y="0px"
	 width="110px" height="32.878px" viewBox="0 0 110 32.878" enable-background="new 0 0 110 32.878" xml:space="preserve">
<path fill-rule="evenodd" clip-rule="evenodd" fill="#D85542" d="M0,0h63.531v32.878H8.219C3.699,32.878,0,29.179,0,24.658V0z"/>
<path fill="#FFFFFF" d="M16.474,21.265h-0.047c-0.153,0.161-0.337,0.325-0.553,0.494c-0.211,0.169-0.459,0.329-0.733,0.479
	c-0.275,0.149-0.581,0.271-0.917,0.36c-0.337,0.095-0.702,0.138-1.094,0.138c-0.529,0-1.02-0.082-1.482-0.247
	c-0.458-0.165-0.851-0.4-1.181-0.71c-0.329-0.31-0.588-0.687-0.776-1.129c-0.188-0.439-0.282-0.93-0.282-1.475
	c0-0.596,0.11-1.133,0.33-1.607c0.215-0.475,0.521-0.879,0.909-1.208c0.392-0.329,0.859-0.58,1.404-0.753
	c0.545-0.172,1.145-0.258,1.804-0.258c0.482,0,0.925,0.032,1.333,0.094c0.404,0.063,0.761,0.133,1.067,0.22V15.21
	c0-0.258-0.043-0.509-0.134-0.752c-0.086-0.239-0.227-0.455-0.423-0.643c-0.196-0.188-0.451-0.337-0.765-0.447
	c-0.314-0.11-0.698-0.165-1.149-0.165c-0.549,0-1.102,0.059-1.655,0.18c-0.548,0.125-1.148,0.31-1.792,0.553v-2.125
	c0.561-0.243,1.153-0.432,1.78-0.561c0.631-0.134,1.291-0.201,1.976-0.208c0.812,0,1.526,0.098,2.133,0.298
	c0.607,0.2,1.117,0.474,1.525,0.82c0.412,0.348,0.717,0.76,0.921,1.234c0.204,0.476,0.302,0.993,0.302,1.553v4.192
	c0,0.737,0.007,1.368,0.023,1.897c0.016,0.525,0.032,1,0.047,1.412h-2.458L16.474,21.265z M16.255,17.704
	c-0.259-0.063-0.557-0.118-0.895-0.165c-0.337-0.051-0.678-0.074-1.023-0.074c-0.667,0-1.192,0.129-1.581,0.396
	c-0.387,0.263-0.58,0.666-0.58,1.212c0,0.25,0.043,0.47,0.133,0.658c0.086,0.188,0.208,0.346,0.357,0.467
	c0.149,0.122,0.322,0.212,0.521,0.274c0.2,0.063,0.408,0.094,0.632,0.094c0.274,0,0.537-0.039,0.78-0.109
	c0.248-0.074,0.471-0.164,0.678-0.278c0.208-0.109,0.393-0.235,0.557-0.373c0.165-0.137,0.306-0.271,0.42-0.399V17.704z"/>
<path fill="#FFFFFF" d="M26.952,22.735c-1.118,0-2.047-0.188-2.78-0.569c-0.737-0.376-1.29-0.889-1.667-1.533
	c-0.2-0.345-0.345-0.721-0.443-1.137c-0.094-0.411-0.142-0.874-0.142-1.38v-6.8h2.722v6.514c0,0.377,0.027,0.697,0.078,0.972
	c0.055,0.271,0.137,0.506,0.243,0.706c0.185,0.338,0.443,0.588,0.78,0.753c0.337,0.165,0.741,0.247,1.208,0.247
	c0.49,0,0.91-0.094,1.259-0.274c0.345-0.185,0.608-0.467,0.784-0.839c0.177-0.36,0.267-0.862,0.267-1.506v-6.572h2.721v6.8
	c0,0.906-0.157,1.666-0.471,2.289c-0.176,0.35-0.404,0.671-0.682,0.958c-0.282,0.286-0.612,0.532-0.988,0.736
	c-0.381,0.2-0.808,0.357-1.29,0.471C28.073,22.681,27.54,22.735,26.952,22.735"/>
<path fill="#FFFFFF" d="M41.656,22.438c-0.306,0.094-0.67,0.164-1.097,0.22c-0.424,0.051-0.82,0.078-1.188,0.078
	c-0.934,0-1.698-0.149-2.29-0.451c-0.596-0.306-1.016-0.736-1.259-1.306c-0.177-0.408-0.263-0.957-0.263-1.655v-5.768h-2.082v-2.239
	h2.082V8.204h2.722v3.113h3.215v2.239H38.28v5.412c0,0.432,0.066,0.749,0.196,0.953c0.228,0.353,0.686,0.529,1.364,0.529
	c0.313,0,0.627-0.023,0.938-0.074c0.31-0.051,0.604-0.114,0.878-0.188V22.438z"/>
<path fill="#FFFFFF" d="M51.581,16.889c0-0.588-0.066-1.109-0.207-1.561c-0.138-0.455-0.33-0.831-0.573-1.137
	c-0.247-0.31-0.541-0.537-0.886-0.69c-0.345-0.153-0.717-0.231-1.125-0.231c-0.396,0-0.769,0.078-1.109,0.231
	c-0.337,0.153-0.632,0.38-0.879,0.69c-0.243,0.306-0.435,0.682-0.572,1.137c-0.137,0.452-0.208,0.973-0.208,1.561
	c0,0.589,0.07,1.11,0.208,1.561c0.137,0.455,0.329,0.831,0.581,1.134c0.248,0.302,0.545,0.533,0.882,0.689
	c0.341,0.157,0.718,0.235,1.122,0.235c0.408,0,0.777-0.078,1.114-0.235c0.337-0.156,0.626-0.388,0.874-0.689
	c0.243-0.303,0.435-0.679,0.573-1.134C51.515,17.999,51.581,17.478,51.581,16.889 M54.396,16.889c0,0.875-0.129,1.67-0.392,2.389
	c-0.259,0.722-0.632,1.337-1.119,1.851c-0.486,0.514-1.074,0.909-1.764,1.188c-0.69,0.282-1.458,0.42-2.31,0.42
	c-0.875,0-1.654-0.138-2.348-0.42c-0.694-0.278-1.283-0.674-1.765-1.188s-0.852-1.129-1.106-1.851
	c-0.258-0.719-0.388-1.514-0.388-2.389s0.133-1.671,0.392-2.388c0.259-0.721,0.636-1.337,1.121-1.851
	c0.486-0.514,1.075-0.91,1.761-1.188c0.69-0.282,1.458-0.42,2.31-0.42c0.875,0,1.659,0.138,2.349,0.42
	c0.694,0.278,1.282,0.674,1.765,1.188c0.481,0.514,0.85,1.129,1.109,1.851C54.267,15.218,54.396,16.014,54.396,16.889"/>
<rect x="64.792" fill-rule="evenodd" clip-rule="evenodd" fill="#003752" width="45.208" height="32.877"/>
<path fill-rule="evenodd" clip-rule="evenodd" fill="#FFFFFF" d="M75.524,19.244l0.49,1.921l1.017-0.253l0.121-0.039l0.12-0.032
	l0.102-0.046l0.092-0.047l0.094-0.046l0.074-0.057l0.074-0.055l0.056-0.048l0.047-0.046l0.037-0.063l0.046-0.072l0.021-0.07
	l0.019-0.096l0.009-0.097l-0.009-0.11l-0.007-0.119v-0.056l-0.008-0.071l-0.009-0.081l0.001-0.078l-0.01-0.088l-0.016-0.096
	l-0.019-0.096l-0.027-0.104l-0.007-0.104l-0.028-0.11l-0.017-0.119l-0.036-0.12l-0.026-0.11l-0.026-0.129l-0.027-0.127l-0.035-0.128
	l-0.045-0.176l-0.054-0.175l-0.045-0.159l-0.054-0.152l-0.045-0.128l-0.055-0.127l-0.044-0.104l-0.046-0.087l-0.056-0.073
	l-0.055-0.081l-0.055-0.071l-0.055-0.057l-0.063-0.048l-0.056-0.048l-0.056-0.033l-0.046-0.017l-0.072-0.008l-0.084-0.001
	l-0.084,0.007l-0.091,0.016l-0.093,0.023l-0.112,0.015L76.172,16.8l-0.11,0.022l-0.12,0.031l-0.112,0.031l-0.101,0.039l-0.094,0.039
	l-0.092,0.031l-0.084,0.031l-0.056,0.039l-0.046,0.032l-0.026,0.055l-0.021,0.063l-0.037,0.064l-0.019,0.086l-0.019,0.08
	l-0.02,0.103l-0.01,0.105l0.007,0.102l0.009,0.064l0.009,0.071l0.019,0.071l0.009,0.073l0.007,0.087l0.018,0.081l0.02,0.095
	l0.018,0.087l0.017,0.088l0.027,0.096l0.026,0.104l0.018,0.111l0.027,0.112l0.027,0.111l0.036,0.111L75.524,19.244z M76.121,21.588
	L76.121,21.588l0.251,0.884l0.054,0.216l0.055,0.207l0.052,0.2l0.054,0.19l0.055,0.185l0.045,0.175l0.054,0.167l0.045,0.152
	l0.044,0.159l0.037,0.135l0.035,0.129l0.035,0.119l0.026,0.111l0.027,0.104l0.018,0.096l0.027,0.08l0.055,0.145l0.053,0.135
	l0.064,0.12l0.063,0.104l0.074,0.097l0.063,0.072l0.057,0.063l0.045,0.048l0.046,0.024l0.073,0.017l0.083,0.009l0.093,0.008
	l0.102,0.01l0.102-0.008l0.102-0.015l0.111-0.023l0.073-0.016l0.056-0.006l0.045,0.008l0.057,0.023l0.027,0.025l0.035,0.04
	l0.029,0.057l0.016,0.054v0.024l-0.009,0.025l-0.019,0.03L78.5,25.998l-0.046,0.017l-0.047,0.031l-0.064,0.015l-0.074,0.023
	l-5.797,1.494l-0.055,0.015h-0.046l-0.047-0.001h-0.046H72.25l-0.036-0.024l-0.018-0.024l-0.01-0.023l-0.019-0.057l0.001-0.056
	l0.02-0.047l0.019-0.04l0.037-0.039l0.037-0.024l0.047-0.023l0.055-0.015l0.112-0.039l0.091-0.039l0.084-0.046l0.065-0.04
	l0.064-0.048l0.047-0.054l0.046-0.041l0.047-0.046l0.02-0.072l0.01-0.07l0.019-0.097l0.011-0.118L73,26.373l0.002-0.144
	l-0.026-0.151l-0.027-0.158l-0.036-0.104l-0.018-0.104l-0.036-0.12l-0.027-0.119l-0.034-0.12l-0.028-0.135l-0.035-0.135
	l-0.026-0.152l-0.044-0.152l-0.026-0.158l-0.036-0.159l-0.054-0.176l-0.036-0.175l-0.044-0.191l-0.044-0.191l-0.063-0.199
	l-0.481-1.867l-0.054-0.197l-0.054-0.2l-0.054-0.184l-0.054-0.184l-0.046-0.168l-0.043-0.167l-0.045-0.159l-0.046-0.144
	l-0.045-0.144l-0.036-0.136l-0.034-0.126l-0.036-0.121l-0.027-0.111l-0.035-0.104l-0.027-0.096l-0.019-0.088l-0.054-0.175
	l-0.054-0.16l-0.045-0.143l-0.064-0.113l-0.053-0.11l-0.055-0.081l-0.056-0.063l-0.055-0.049l-0.055-0.041l-0.064-0.031
	l-0.083-0.024l-0.073-0.017l-0.102-0.001L70.31,18.34l-0.11,0.022l-0.12,0.023l-0.065,0.008l-0.046-0.001l-0.046-0.009l-0.036-0.007
	l-0.046-0.018l-0.028-0.016l-0.027-0.041l-0.018-0.03v-0.049l0.001-0.055l0.009-0.049l0.021-0.039l0.036-0.048l0.038-0.03
	l0.046-0.017l0.045-0.016l6.879-1.802l0.26-0.061l0.25-0.062l0.239-0.054l0.24-0.046l0.231-0.045l0.23-0.029l0.213-0.046
	l0.213-0.022l0.202-0.023l0.203-0.03l0.195-0.022l0.184-0.006l0.176-0.014l0.185-0.006l0.157-0.006l0.156-0.008l0.148,0.009
	l0.137,0.025l0.129,0.033l0.129,0.048l0.13,0.066l0.118,0.072l0.11,0.088l0.11,0.097l0.101,0.113l0.1,0.128l0.083,0.127l0.09,0.145
	l0.072,0.168l0.064,0.168l0.062,0.175l0.063,0.191l0.018,0.103l0.026,0.12l0.008,0.104l0.018,0.104l0.02,0.103l-0.002,0.112
	l0.008,0.103v0.097l-0.011,0.103l-0.011,0.096l-0.019,0.087l-0.02,0.096l-0.019,0.08l-0.028,0.079l-0.038,0.087l-0.037,0.071
	l-0.094,0.142l-0.102,0.143l-0.122,0.143l-0.13,0.135l-0.141,0.126l-0.148,0.109l-0.167,0.102l-0.175,0.095l-0.084,0.047
	l-0.084,0.055l-0.093,0.046l-0.083,0.048l-0.093,0.056l-0.093,0.046l-0.082,0.047l-0.104,0.047l-0.093,0.047l-0.101,0.039
	l-0.084,0.055l-0.11,0.032l-0.094,0.038l-0.092,0.039l-0.103,0.022l-0.102,0.023l-0.111,0.048l-0.11,0.03l-0.111,0.039l-0.11,0.038
	l-0.103,0.039l-0.111,0.031l-0.102,0.039l-0.092,0.03l-0.112,0.032l-0.093,0.03l-0.1,0.03l-0.104,0.032l-0.091,0.021l-0.102,0.031
	l-0.103,0.022l-0.103,0.032l0.121,0.04l0.138,0.058l0.118,0.032l0.13,0.041l0.129,0.033l0.129,0.024l0.139,0.018l0.139,0.017
	l0.137,0.018h0.13l0.146,0.002l0.139-0.015l0.147-0.015l0.131-0.022l0.146-0.022l0.148-0.039l0.083-0.016l0.093-0.03l0.092-0.047
	l0.112-0.047l0.101-0.047l0.112-0.054l0.111-0.048l0.119-0.047l0.13-0.07l0.132-0.055l0.119-0.063l0.111-0.038l0.111-0.047
	l0.082-0.031l0.093-0.039l0.074-0.023l0.056-0.007l0.037,0.009l0.036,0.016l0.055,0.04l0.028,0.041l0.036,0.048l0.027,0.063
	l0.026,0.072l0.019,0.072l0.027,0.063l0.026,0.079l0.036,0.072l0.037,0.088l0.035,0.08l0.055,0.088l0.046,0.08l0.054,0.088
	l0.056,0.095l0.063,0.089l0.064,0.089l0.064,0.096l0.072,0.087l0.073,0.097l0.074,0.096l0.063,0.104l0.072,0.097l0.083,0.096
	l0.072,0.096l0.083,0.096l0.091,0.089l0.082,0.08l0.083,0.08l0.092,0.088l0.073,0.081l0.091,0.072l0.083,0.072l0.073,0.064
	l0.083,0.063l0.072,0.057l0.074,0.057l0.183,0.146l0.175,0.112l0.156,0.089l0.155,0.073l0.139,0.04l0.129,0.026h0.119l0.12-0.015
	l0.074-0.016l0.063-0.008l0.047,0.009l0.047,0.017l0.036,0.024l0.027,0.039l0.018,0.048l0.018,0.057l0.01,0.032l-0.01,0.031
	l-0.009,0.023l-0.021,0.016l-0.035,0.032l-0.047,0.022l-0.064,0.017l-0.074,0.022l-4.577,1.194l-0.063,0.014l-0.055,0.017
	l-0.057,0.007l-0.047,0.009l-0.046,0.007l-0.036-0.001h-0.02h-0.009v-0.007l-0.009-0.017l-0.028-0.017l-0.018-0.04l-0.037-0.039
	l-0.036-0.058l-0.036-0.063l-0.036-0.072l-2.807-3.922L76.121,21.588z M86.57,19.823l0.053,0.216l0.054,0.216l0.055,0.199
	l0.043,0.198l0.035,0.191l0.036,0.176l0.044,0.176l0.027,0.159l0.034,0.159l0.02,0.143l0.034,0.137l0.027,0.128l0.008,0.11
	l0.026,0.111l0.018,0.097l0.019,0.079l0.026,0.151l0.017,0.144l0.018,0.151l-0.001,0.118l-0.011,0.12l-0.019,0.095l-0.028,0.087
	l-0.028,0.057l-0.038,0.039l-0.046,0.039l-0.056,0.048l-0.073,0.039l-0.084,0.047l-0.094,0.039l-0.102,0.03l-0.11,0.031
	l-0.064,0.022l-0.065,0.031l-0.056,0.032l-0.037,0.04l-0.037,0.047l-0.01,0.047v0.056l0.008,0.063v0.032l0.019,0.009l0.035,0.016
	l0.028,0.008l0.037,0.001l0.056-0.008l0.065-0.015l0.073-0.007l6.037-1.579l0.055-0.016l0.057-0.016l0.046-0.023l0.047-0.023
	l0.037-0.031l0.027-0.024l0.009-0.03v-0.032l-0.016-0.056l-0.038-0.041l-0.046-0.032L92.687,22l-0.065-0.009h-0.072l-0.075,0.007
	l-0.083,0.016l-0.121,0.022l-0.102,0.016l-0.11-0.001l-0.102-0.001l-0.102-0.009l-0.081-0.008l-0.084-0.018l-0.064-0.017
	l-0.046-0.056l-0.055-0.048l-0.055-0.072l-0.047-0.089l-0.071-0.103l-0.064-0.112l-0.054-0.128l-0.063-0.145l-0.019-0.071
	l-0.026-0.096l-0.027-0.096l-0.034-0.111l-0.037-0.128l-0.036-0.127l-0.045-0.145l-0.035-0.151l-0.053-0.159l-0.045-0.175
	l-0.045-0.168l-0.055-0.191l-0.054-0.19l-0.053-0.208l-0.053-0.208l-0.055-0.222l-0.49-1.859l-0.055-0.214L89.9,16.512l-0.044-0.199
	l-0.055-0.191L89.76,15.93l-0.036-0.183l-0.036-0.168l-0.045-0.167l-0.026-0.159L89.58,15.11l-0.025-0.144l-0.026-0.119l-0.026-0.12
	l-0.01-0.111l-0.018-0.096l-0.018-0.087l-0.026-0.143l-0.025-0.144l-0.009-0.143l0.01-0.127l0.012-0.11l0.019-0.097l0.02-0.087
	l0.027-0.055l0.038-0.055l0.055-0.055l0.056-0.047l0.075-0.047l0.083-0.047l0.093-0.04l0.103-0.039l0.101-0.023l0.074-0.024
	l0.064-0.038l0.065-0.048l0.047-0.047l0.036-0.047l0.02-0.04l0.02-0.047l-0.009-0.032l-0.018-0.032l-0.02-0.032l-0.046-0.024
	l-0.055-0.023l-0.056-0.009l-0.056-0.009H90.09l-0.046,0.007l-6.037,1.58l-0.074,0.015l-0.046,0.039l-0.056,0.032l-0.029,0.039
	l-0.019,0.04l-0.019,0.039v0.04v0.032l0.019,0.04l0.027,0.024l0.045,0.032l0.046,0.017l0.056,0.016l0.065,0.008l0.072-0.007
	l0.075-0.016l0.102-0.015l0.109-0.023l0.111-0.006l0.103,0l0.092,0.001l0.092,0.017l0.075,0.024l0.054,0.032l0.056,0.032l0.054,0.05
	l0.056,0.08l0.055,0.095l0.063,0.113l0.054,0.127l0.064,0.136l0.054,0.144l0.027,0.08l0.019,0.095l0.035,0.104l0.036,0.112
	l0.045,0.127l0.035,0.127l0.045,0.152l0.045,0.151l0.054,0.159l0.046,0.168l0.053,0.176l0.055,0.189l0.054,0.192l0.053,0.199
	l0.063,0.208l0.055,0.216L86.57,19.823z M98.201,16.654L98.201,16.654l-2.014-2.823l0.026,0.023l-0.204,3.442L98.201,16.654z
	 M95.961,17.669L95.961,17.669l0.056,1.066l0.007,0.137l0.027,0.11l0.019,0.112l0.035,0.096l0.026,0.087l0.055,0.08l0.037,0.073
	l0.056,0.063l0.045,0.063l0.055,0.064l0.063,0.057l0.056,0.063l0.073,0.056l0.045,0.064l0.074,0.057l0.054,0.063l0.119,0.129
	l0.128,0.104l0.156,0.097l0.155,0.081l0.176,0.074l0.166,0.04l0.165,0.033l0.166,0.01l0.055,0.009l0.064,0.016l0.056,0.009
	l0.046,0.024l0.037,0.023l0.046,0.032l0.019,0.024l0.017,0.04v0.031l-0.018,0.032l-0.028,0.032l-0.047,0.023l-0.046,0.022
	l-0.056,0.023l-0.065,0.031l-0.064,0.023l-4.419,1.147l-0.065,0.016l-0.063,0.015h-0.065H93.32h-0.046l-0.026-0.018l-0.028-0.023
	l-0.019-0.024l-0.008-0.04l0.009-0.047l0.02-0.04l0.028-0.04l0.037-0.039l0.036-0.04l0.065-0.03l0.056-0.032l0.074-0.047
	l0.083-0.047l0.083-0.056l0.075-0.062l0.075-0.063l0.073-0.08l0.073-0.078l0.066-0.087l0.075-0.103l0.065-0.104l0.066-0.11
	l0.065-0.118l0.055-0.119l0.066-0.127l0.057-0.135l0.065-0.142l0.075-0.175l0.057-0.19l0.076-0.175l0.057-0.182l0.065-0.184
	l0.059-0.174l0.046-0.183l0.049-0.175l0.048-0.175l0.047-0.174l0.038-0.183l0.038-0.167l0.031-0.175l0.028-0.175l0.03-0.174
	l0.018-0.167l0.021-0.167l0.012-0.183l0.02-0.183l0.029-0.207l0.011-0.214l0.021-0.23l0.021-0.239l0.031-0.262l0.01-0.271
	l0.031-0.271l0.012-0.293l0.029-0.302l0.031-0.318l0.021-0.326l0.032-0.342l0.02-0.35l-0.045-0.063l-0.064-0.057l-0.055-0.056
	l-0.073-0.041l-0.055-0.048l-0.064-0.024l-0.055-0.016l-0.056,0l-0.057-0.025l-0.063-0.016l-0.074-0.017l-0.072-0.008l-0.083-0.017
	l-0.084-0.009l-0.063-0.008l-0.083,0l-0.082-0.024l-0.084-0.025l-0.064-0.024l-0.064-0.016l-0.046-0.024l-0.027-0.016l-0.027-0.024
	l-0.01-0.024l-0.008-0.039l0.019-0.048l0.037-0.039l0.037-0.039l0.066-0.041l0.072-0.038l0.102-0.039l0.111-0.031l0.103-0.031
	l0.102-0.03l0.093-0.031l0.11-0.031l0.093-0.039l0.11-0.039l0.093-0.046l0.102-0.047l0.102-0.055l0.093-0.046l0.103-0.055
	l0.103-0.055l0.092-0.063l0.093-0.063l0.093-0.055l0.094-0.063l0.102-0.071l0.102-0.07l0.103-0.072l0.103-0.071l0.093-0.07
	l0.083-0.08l0.094-0.07l0.093-0.071l0.084-0.071l0.083-0.071l0.084-0.071l0.073-0.079l0.067-0.071l0.064-0.063l0.065-0.071
	l0.064-0.063l0.13-0.133l0.121-0.126l0.103-0.103l0.094-0.102l0.073-0.07l0.056-0.056l0.028-0.031l0.019-0.009l0.019,0l0.018,0.008
	l0.028,0.016l0.027,0.016l0.036,0.041l0.038,0.04l0.045,0.057l0.045,0.071l0.055,0.064l0.073,0.088l0.074,0.08l0.072,0.096
	l0.063,0.104l0.073,0.104l0.073,0.104l0.054,0.12l0.092,0.12l0.091,0.128l0.1,0.137l0.101,0.119l0.092,0.127l0.101,0.121
	l0.072,0.136l0.072,0.119l0.101,0.136l0.081,0.127l0.092,0.112l0.083,0.104l0.063,0.112l0.065,0.088l0.054,0.08l0.064,0.08
	l2.927,3.907l0.082,0.112l0.082,0.112l0.073,0.112l0.073,0.112l0.081,0.104l0.073,0.096l0.073,0.104l0.064,0.087l0.072,0.097
	l0.073,0.087l0.063,0.089l0.063,0.071l0.064,0.072l0.065,0.073l0.054,0.064l0.055,0.057l0.11,0.103l0.11,0.098l0.091,0.088
	l0.092,0.072l0.082,0.058l0.064,0.048l0.063,0.032l0.046,0.009l0.046,0.007l0.057,0.001l0.074,0.001h0.072l0.074-0.007l0.083,0.001
	l0.082-0.008l0.084-0.014l0.057,0.016l0.063,0.016l0.045,0.024l0.065,0.024l0.037,0.024l0.027,0.024l0.026,0.016l0.009,0.017v0.031
	l-0.009,0.024l-0.027,0.023l-0.019,0.031l-0.037,0.023l-0.047,0.016l-0.056,0.022l-0.056,0.017l-6.397,1.679l-0.027,0.008
	l-0.047,0.008l-0.037,0.008l-0.027,0.007l-0.038,0.017l-0.026,0.008l-0.028,0.008l-0.019,0.007l-0.026-0.007l-0.037-0.025
	l-0.038-0.031l-0.009-0.033l-0.018-0.063l0.001-0.048l0.011-0.055l0.026-0.041l0.027-0.039l0.048-0.031l0.055-0.031l0.074-0.022
	l0.195-0.094l0.177-0.11l0.138-0.11l0.112-0.126l0.075-0.144l0.048-0.142l0.001-0.159l-0.034-0.16l-0.02-0.063l-0.019-0.064
	l-0.035-0.08l-0.027-0.072l-0.036-0.096l-0.035-0.088l-0.047-0.096l-0.045-0.104l-0.072-0.112l-0.081-0.111l-0.084-0.112
	l-0.072-0.112l-0.072-0.104l-0.082-0.111l-0.083-0.104l-0.063-0.112l-0.073-0.088l-0.082-0.096l-0.082-0.089l-0.063-0.08
	l-0.074-0.08l-0.064-0.072l-0.055-0.064l-0.035-0.065L95.961,17.669z"/>
<polygon fill-rule="evenodd" clip-rule="evenodd" fill="#FFFFFF" points="82.672,10.175 78.235,9.565 83.072,8.34 84.02,4.918 
	86.953,7.484 95.844,5.509 88.903,9.333 91.351,11.487 86.173,10.75 81.506,13.641 "/>
</svg>
